#!OML:ASF H:\Dans Jumps\Project 1\Capture day 1\Session 1\subject.ASF
:FULLY-SPECIFIED
:DEGREES
1819
root 0.241484 17.5359 2.8737 6.83505 -0.861736 -1.25764
lowerback -2.16595 -1.89743 -2.65195
upperback 0.357531 -2.48432 1.56503
thorax 1.7637 -1.2764 3.00043
lowerneck -4.74351 -11.6737 -10.0959
upperneck 7.7021 -16.0248 11.5198
head 4.83142 -7.71996 4.03266
rclavicle -6.04119e-015 1.37907e-014
rhumerus -17.9502 -33.7334 -1.01529
rradius 28.8023
rwrist 41.1435
rhand -20.5998 -23.7073
rfingers 7.12502
rthumb 5.76075 -53.609
lclavicle -6.04119e-015 1.37907e-014
lhumerus -20.6892 25.6313 2.00518
lradius 26.7434
lwrist 9.59883
lhand -22.5659 -6.84038
lfingers 7.12502
lthumb 3.86235 23.1044
rfemur -18.0877 -5.66905 18.1937
rtibia 30.8013
rfoot -17.4066 -9.02504
rtoes 12.1372
lfemur -15.898 6.59372 -17.8957
ltibia 28.065
lfoot -15.0517 12.0197
ltoes 7.64095
1820
root 0.243752 17.5357 2.87221 6.8305 -0.864679 -1.23989
lowerback -2.16792 -1.89986 -2.65184
upperback 0.360982 -2.48742 1.55916
thorax 1.7683 -1.27803 2.99405
lowerneck -4.74728 -11.6605 -10.0832
upperneck 7.69917 -16.006 11.5099
head 4.82722 -7.71077 4.02975
rclavicle -4.32854e-014 4.99446e-015
rhumerus -17.9921 -33.7289 -0.997145
rradius 28.8099
rwrist 41.1416
rhand -20.5473 -23.7145
rfingers 7.12502
rthumb 5.8114 -53.6148
lclavicle -4.32854e-014 4.99446e-015
lhumerus -20.6494 25.7404 2.02077
lradius 26.7107
lwrist 9.55052
lhand -22.5408 -6.85341
lfingers 7.12502
lthumb 3.88656 23.0909
rfemur -18.0878 -5.72043 18.1654
rtibia 30.8014
rfoot -17.3943 -8.97904
rtoes 12.1219
lfemur -15.9017 6.63258 -17.9246
ltibia 28.0665
lfoot -15.0523 11.9735
ltoes 7.66743
1821
root 0.245134 17.536 2.86917 6.82747 -0.873431 -1.2647
lowerback -2.14483 -1.89616 -2.62206
upperback 0.35493 -2.48395 1.56813
thorax 1.74798 -1.27567 2.98763
lowerneck -4.70876 -11.6519 -10.0834
upperneck 7.67243 -15.9944 11.507
head 4.81114 -7.70716 4.03307
rclavicle -8.41729e-016 -1.21756e-015
rhumerus -18.014 -33.8889 -0.968123
rradius 28.7708
rwrist 41.2985
rhand -20.5818 -23.5931
rfingers 7.12502
rthumb 5.77815 -53.4943
lclavicle -8.41729e-016 -1.21756e-015
lhumerus -20.6374 25.7989 2.02124
lradius 26.6855
lwrist 9.53107
lhand -22.5499 -6.87678
lfingers 7.12502
lthumb 3.87773 23.0677
rfemur -18.0982 -5.66531 18.1908
rtibia 30.8029
rfoot -17.372 -9.03964
rtoes 12.0531
lfemur -15.9071 6.6118 -17.9014
ltibia 28.0673
lfoot -15.0478 12.0003
ltoes 7.69982
1822
root 0.24744 17.5356 2.86723 6.81203 -0.86742 -1.26108
lowerback -2.11739 -1.90936 -2.61689
upperback 0.351973 -2.50237 1.57305
thorax 1.73088 -1.28457 2.99003
lowerneck -4.72151 -11.6343 -10.07
upperneck 7.69177 -15.9696 11.4841
head 4.81342 -7.69481 4.02577
rclavicle -3.81356e-014 2.67614e-014
rhumerus -18.0486 -33.4342 -1.01083
rradius 28.8988
rwrist 40.8238
rhand -20.5554 -23.8044
rfingers 7.12502
rthumb 5.80357 -53.7049
lclavicle -3.81356e-014 2.67614e-014
lhumerus -20.678 25.7507 2.01807
lradius 26.7003
lwrist 9.54571
lhand -22.4708 -6.95993
lfingers 7.12502
lthumb 3.95417 22.9831
rfemur -18.0871 -5.7015 18.1782
rtibia 30.8044
rfoot -17.3632 -9.01057
rtoes 12.07
lfemur -15.8981 6.64034 -17.9141
ltibia 28.0681
lfoot -15.0356 11.976
ltoes 7.65422
1823
root 0.248946 17.5358 2.86504 6.8194 -0.891694 -1.24389
lowerback -2.12179 -1.90146 -2.62282
upperback 0.352703 -2.49141 1.56336
thorax 1.73312 -1.27913 2.98366
lowerneck -4.70939 -11.6272 -10.0694
upperneck 7.67646 -15.961 11.4969
head 4.80683 -7.69077 4.03149
rclavicle 6.27414e-016 -3.23771e-014
rhumerus -18.0749 -33.6224 -0.98168
rradius 28.8549
rwrist 40.9401
rhand -20.5807 -23.7108
rfingers 7.12502
rthumb 5.77922 -53.6119
lclavicle 6.27414e-016 -3.23771e-014
lhumerus -20.6228 25.9416 2.00975
lradius 26.6242
lwrist 9.36888
lhand -22.5445 -6.8903
lfingers 7.12502
lthumb 3.88296 23.0541
rfemur -18.1122 -5.72739 18.1541
rtibia 30.8041
rfoot -17.3345 -8.99156
rtoes 12.0723
lfemur -15.9141 6.64696 -17.9422
ltibia 28.073
lfoot -15.0417 11.9783
ltoes 7.73984
1824
root 0.251301 17.5356 2.86255 6.81072 -0.893541 -1.24481
lowerback -2.10503 -1.90674 -2.60786
upperback 0.360564 -2.49922 1.56453
thorax 1.73176 -1.28298 2.97655
lowerneck -4.71867 -11.6182 -10.0717
upperneck 7.66608 -15.9488 11.5142
head 4.80556 -7.68398 4.03798
rclavicle 3.37282e-014 5.56597e-015
rhumerus -18.0946 -33.7166 -0.986741
rradius 28.8689
rwrist 40.9344
rhand -20.5381 -23.8299
rfingers 7.12502
rthumb 5.82035 -53.73
lclavicle 3.37282e-014 5.56597e-015
lhumerus -20.6357 25.9339 2.01575
lradius 26.6268
lwrist 9.37408
lhand -22.5131 -6.86164
lfingers 7.12502
lthumb 3.91325 23.0822
rfemur -18.1126 -5.70983 18.1457
rtibia 30.8113
rfoot -17.3504 -8.97859
rtoes 12.035
lfemur -15.9118 6.64596 -17.9491
ltibia 28.0695
lfoot -15.0286 11.9863
ltoes 7.65772
1825
root 0.252598 17.5357 2.85944 6.81766 -0.898172 -1.25089
lowerback -2.07796 -1.90586 -2.59674
upperback 0.339018 -2.49896 1.56608
thorax 1.69398 -1.28189 2.97329
lowerneck -4.67789 -11.6075 -10.0732
upperneck 7.66175 -15.9379 11.5225
head 4.79708 -7.67994 4.04437
rclavicle 8.87077e-015 -1.36416e-014
rhumerus -18.1448 -33.7029 -0.964176
rradius 28.8946
rwrist 40.8517
rhand -20.486 -23.8764
rfingers 7.12502
rthumb 5.87065 -53.7751
lclavicle 8.87077e-015 -1.36416e-014
lhumerus -20.6302 25.9679 2.01108
lradius 26.6056
lwrist 9.2517
lhand -22.4075 -7.01753
lfingers 7.12502
lthumb 4.01524 22.9244
rfemur -18.1383 -5.70146 18.1505
rtibia 30.8175
rfoot -17.3232 -8.99578
rtoes 11.9842
lfemur -15.9325 6.69724 -17.9505
ltibia 28.0659
lfoot -15.0145 11.9417
ltoes 7.67092
1826
root 0.25452 17.5354 2.8568 6.80842 -0.920941 -1.21363
lowerback -2.06512 -1.90656 -2.63188
upperback 0.347718 -2.49909 1.55716
thorax 1.69687 -1.28241 2.9841
lowerneck -4.66363 -11.5952 -10.0695
upperneck 7.64594 -15.9219 11.5299
head 4.78847 -7.67253 4.04897
rclavicle 3.41661e-015 -2.77056e-014
rhumerus -18.1531 -33.9342 -0.953776
rradius 28.8652
rwrist 41.0097
rhand -20.437 -23.8585
rfingers 7.12502
rthumb 5.91794 -53.7559
lclavicle 3.41661e-015 -2.77056e-014
lhumerus -20.6121 26.0932 2.00461
lradius 26.5595
lwrist 9.13197
lhand -22.4985 -6.80748
lfingers 7.12502
lthumb 3.92741 23.1361
rfemur -18.149 -5.72211 18.1002
rtibia 30.8256
rfoot -17.3147 -8.95895
rtoes 11.9928
lfemur -15.9268 6.69377 -18.0002
ltibia 28.0631
lfoot -15.0129 11.956
ltoes 7.71534
1827
root 0.256106 17.5361 2.85462 6.81958 -0.921947 -1.20768
lowerback -2.04804 -1.90618 -2.63517
upperback 0.337913 -2.4989 1.55819
thorax 1.67738 -1.28193 2.9878
lowerneck -4.7045 -11.5984 -10.063
upperneck 7.66374 -15.926 11.5363
head 4.8012 -7.67225 4.04666
rclavicle -2.52146e-014 -1.7344e-014
rhumerus -18.167 -34.0367 -0.937812
rradius 28.8401
rwrist 41.0529
rhand -20.3982 -23.9039
rfingers 7.12502
rthumb 5.95534 -53.8002
lclavicle -2.52146e-014 -1.7344e-014
lhumerus -20.6086 26.1596 2.00306
lradius 26.5338
lwrist 9.06654
lhand -22.3821 -7.01096
lfingers 7.12502
lthumb 4.03983 22.9305
rfemur -18.1711 -5.713 18.0892
rtibia 30.8304
rfoot -17.3115 -8.96175
rtoes 12.01
lfemur -15.949 6.71267 -18.0162
ltibia 28.0612
lfoot -15.0063 11.9356
ltoes 7.6675
1828
root 0.257351 17.5353 2.85115 6.78896 -0.931431 -1.22758
lowerback -2.01341 -1.90566 -2.61475
upperback 0.348702 -2.49958 1.56526
thorax 1.66852 -1.28214 2.98457
lowerneck -4.66842 -11.5959 -10.0639
upperneck 7.64171 -15.9229 11.533
head 4.78791 -7.67262 4.04879
rclavicle -4.6938e-014 2.83268e-014
rhumerus -18.1828 -34.0292 -0.946117
rradius 28.8424
rwrist 41.0078
rhand -20.3784 -23.8992
rfingers 7.12502
rthumb 5.97452 -53.795
lclavicle -4.6938e-014 2.83268e-014
lhumerus -20.5981 26.3242 1.99116
lradius 26.4834
lwrist 8.89899
lhand -22.404 -6.9503
lfingers 7.12502
lthumb 4.01864 22.9916
rfemur -18.1517 -5.6684 18.104
rtibia 30.8319
rfoot -17.3056 -8.98787
rtoes 12.0149
lfemur -15.9303 6.73456 -17.9965
ltibia 28.0662
lfoot -15.0031 11.9365
ltoes 7.68582
1829
root 0.25892 17.5361 2.84892 6.81637 -0.940077 -1.22326
lowerback -2.01929 -1.90564 -2.62163
upperback 0.334732 -2.49937 1.57123
thorax 1.65802 -1.28179 2.99468
lowerneck -4.63204 -11.5877 -10.0612
upperneck 7.61413 -15.9122 11.5343
head 4.77216 -7.66913 4.05272
rclavicle -1.24054e-014 3.47873e-016
rhumerus -18.1783 -34.1401 -0.931426
rradius 28.8009
rwrist 41.1056
rhand -20.3194 -23.9032
rfingers 7.12502
rthumb 6.03146 -53.7974
lclavicle -1.24054e-014 3.47873e-016
lhumerus -20.618 26.2176 2.02219
lradius 26.52
lwrist 9.00674
lhand -22.4168 -6.63274
lfingers 7.12502
lthumb 4.00633 23.3093
rfemur -18.192 -5.6859 18.0962
rtibia 30.829
rfoot -17.2911 -8.96783
rtoes 12.0349
lfemur -15.9689 6.73204 -18.0102
ltibia 28.071
lfoot -15.0084 11.9283
ltoes 7.63845
1830
root 0.260628 17.5351 2.84608 6.77446 -0.940899 -1.24642
lowerback -1.96413 -1.9085 -2.60303
upperback 0.346568 -2.50508 1.58725
thorax 1.63957 -1.28446 3.00218
lowerneck -4.60036 -11.5873 -10.0791
upperneck 7.59756 -15.9116 11.5383
head 4.76355 -7.67062 4.05882
rclavicle 1.94933e-014 4.77083e-015
rhumerus -18.1972 -34.1775 -0.925218
rradius 28.8182
rwrist 41.1114
rhand -20.2941 -23.907
rfingers 7.12502
rthumb 6.05588 -53.8004
lclavicle 1.94933e-014 4.77083e-015
lhumerus -20.653 26.1672 2.03268
lradius 26.5357
lwrist 9.12864
lhand -22.389 -6.81193
lfingers 7.12502
lthumb 4.03314 23.1296
rfemur -18.1505 -5.66317 18.1128
rtibia 30.8238
rfoot -17.2955 -8.97716
rtoes 12.0503
lfemur -15.9417 6.75254 -17.9837
ltibia 28.0806
lfoot -14.9934 11.9153
ltoes 7.716
1831
root 0.262645 17.5353 2.84495 6.79481 -0.962277 -1.23903
lowerback -1.98172 -1.91037 -2.60635
upperback 0.336684 -2.50718 1.5899
thorax 1.63969 -1.28543 3.00628
lowerneck -4.6293 -11.5799 -10.0525
upperneck 7.6138 -15.8987 11.5035
head 4.7668 -7.66372 4.04386
rclavicle -5.49143e-015 -8.74653e-015
rhumerus -18.1815 -34.1846 -0.933471
rradius 28.7925
rwrist 41.129
rhand -20.392 -23.6478
rfingers 7.12502
rthumb 5.96133 -53.544
lclavicle -5.49143e-015 -8.74653e-015
lhumerus -20.6735 26.2344 2.02523
lradius 26.5196
lwrist 9.06178
lhand -22.3327 -6.7615
lfingers 7.12502
lthumb 4.0875 23.179
rfemur -18.1761 -5.65457 18.0951
rtibia 30.8158
rfoot -17.2851 -8.95262
rtoes 12.0889
lfemur -15.9656 6.73952 -18.0045
ltibia 28.0903
lfoot -15.0126 11.9349
ltoes 7.7312
1832
root 0.263975 17.5356 2.84219 6.78857 -0.960057 -1.24712
lowerback -1.96929 -1.90023 -2.58608
upperback 0.343182 -2.49425 1.58101
thorax 1.63717 -1.27876 2.98656
lowerneck -4.57685 -11.5869 -10.0368
upperneck 7.58066 -15.9134 11.5277
head 4.75038 -7.67198 4.05122
rclavicle 1.74496e-014 -7.20594e-016
rhumerus -18.2196 -34.3983 -0.901207
rradius 28.7069
rwrist 41.3176
rhand -20.4686 -23.541
rfingers 7.12502
rthumb 5.88742 -53.4392
lclavicle 1.74496e-014 -7.20594e-016
lhumerus -20.6484 26.2068 2.05569
lradius 26.5471
lwrist 9.14857
lhand -22.3154 -6.76906
lfingers 7.12502
lthumb 4.1042 23.1712
rfemur -18.1805 -5.62783 18.1028
rtibia 30.8134
rfoot -17.2545 -9.01672
rtoes 11.957
lfemur -15.9733 6.73609 -17.9986
ltibia 28.0972
lfoot -15.0021 11.9328
ltoes 7.75214
1833
root 0.265375 17.5356 2.83977 6.78557 -0.968518 -1.27434
lowerback -1.94543 -1.89898 -2.56163
upperback 0.339579 -2.49384 1.59059
thorax 1.61942 -1.27808 2.98361
lowerneck -4.60749 -11.5852 -9.99377
upperneck 7.60716 -15.9085 11.4754
head 4.75512 -7.66904 4.02755
rclavicle -1.63594e-014 2.75068e-014
rhumerus -18.2324 -34.4118 -0.911372
rradius 28.7058
rwrist 41.3472
rhand -20.4391 -23.6328
rfingers 7.12502
rthumb 5.9159 -53.5302
lclavicle -1.63594e-014 2.75068e-014
lhumerus -20.6486 26.3145 2.04646
lradius 26.5036
lwrist 9.03852
lhand -22.2227 -6.77542
lfingers 7.12502
lthumb 4.19373 23.163
rfemur -18.1844 -5.60387 18.1284
rtibia 30.8084
rfoot -17.2492 -9.01309
rtoes 11.9352
lfemur -15.985 6.77658 -17.9762
ltibia 28.1046
lfoot -14.9701 11.919
ltoes 7.66361
